<mxfile host="app.diagrams.net" modified="2021-12-20T16:35:45.269Z" agent="5.0 (Windows NT 10.0; Win64; x64) AppleWebKit/537.36 (KHTML, like Gecko) Chrome/96.0.4664.110 Safari/537.36 Edg/96.0.1054.62" etag="F9T31ePzpulaB5i9RqiL" version="15.9.4" type="github">
  <diagram id="bU44rczVzO-h0Gsko90V" name="Page-1">
    <mxGraphModel dx="1222" dy="1114" grid="1" gridSize="10" guides="1" tooltips="1" connect="1" arrows="1" fold="1" page="1" pageScale="1" pageWidth="827" pageHeight="1169" math="0" shadow="0">
      <root>
        <mxCell id="0" />
        <mxCell id="1" parent="0" />
        <mxCell id="HTFmvV2dwYDpWLHHtwac-1" value="" style="shape=image;verticalLabelPosition=bottom;labelBackgroundColor=#ffffff;verticalAlign=top;aspect=fixed;imageAspect=0;image=data:image/png,iVBORw0KGgoAAAANSUhEUgAAAJoAAABRCAYAAAAq0L9gAAAAAXNSR0IArs4c6QAAAARnQU1BAACxjwv8YQUAAAAJcEhZcwAAFxEAABcRAcom8z8AABPESURBVHhe7V0JlFTVmW4Rl4iJZnCiSUadRNBgEBccF4xk1JyjidskMybGQNwGDuY4x0k8Jo5LzDhndHIUZBNl3/e1W5QdBASBhrDY9EZ3V1dv1QvVK71V0/XP9/3vve7q6gfN0vVedfE+zn+6qPfu8u793r/crZLEgwcH4BHNgyPwiObBEXhE8+AIeizRwuFWyaluks8Kjsnk9Gp5c+9ReXlXhby2p0ImplVJsq9WDlc2Suj4cTOFBzfRQ4gWbvu7rfiYvLSjTAYt9ctF03IkaVK2JE3MMiWz/fOkLOk19Yj0X+STZ7eUSAqIFzreaubjwWn0GKLNz6qWu1bkS9JHJqE+BsGmHJEkkO08G+H3SVMhvI/E+zBLBoB0Yw8Fpb7l7LRcVdNxSa9skm0lx2RDYZ1sAfkPHG2U0oYW8w4P0Yh7ou0srZcfrSowyEXtBfLYEasrUeJ9hPQTMpVwyXm1ZgmngrCkljXIW3vK5ccpBXLl3Fw5H9pSSUziM98p2XLZ7BwZvNwvL24vlTX+Omn2NGgb4ppo7+w7Kud/bGijpGlHbAl0JqLEQJ4vbAtI00nJEJYlOTUylEQnqSagHiT7ZAiJpkLNaX4G2Qwy874s+QEIPfpAUOpCnqaLS6K1tLbKsE0lkjQeWgzm0Y4sZytKEOQ/NNkvFQ0hs+R27Cuvl/uhvZImgjhnoEnbzDY0aP8FPlmaezoaNPEQd0QLtYbl0TVFBslsOrA7Rc0pTPKgJT4prW82ayAyIS0oF9H/I8mi0pyuGCYbeVGDbqUGPTej4Lgj2nBLk0V1WCyFwcI9MI9HG0Pyypflhj84uXs1qaVB74OWrGzqrEETHXFFtL/uDzpOMkto5q5ZmGeYu9M0k6cqqt3gv921wi+1zeeWZosbou2FT9SLTnaMfLKuREnwseHc213vTiHZHllTiFjDGh9MfMQF0VrDrTJklV/9GLuOSTRRUkNzv42oOhIhBEEHKuplblaVvLanXH67JSCPry2Wh9cUy6NrS+SpzQH5065ymZ5RJall9VLfg6LZuCDaopxqwy+K6pBEFmruXhAShmN0/7G9XG5Y7DOGSCJnOTi0w6iXfyl6DTI5S763IE+eBxnXFdTpyxrPcJ1oYZiPO1ZCm006N7RZpJBsl83KhbmGyebYm+kfdvXCqUbU4RNGxgYBb13qh6arluNxSjjXibYjUGc2sDu+mdui02hn+exKOnPW4/Zlfp0Wize4TrTf7yzTt9muAT05PVFNRzML6/DyjjJpaY2fyNZVooXx7+blnCjPtm04T85M1BRzzC7ZL2X18REwuEo0f11ILp6BhnFpSCORRbUb/LcbF/mkoK591sMtuEq0TUX1qubPpWjTaWH0OmBRXocpNjfgKtFmZtVoQ3hEi61Qsw1NKZCQiz6bq0Qbc6hKiWbXOJ50r9Bne2lnqdnyzsNVor1/oNIjmkOSNAUCN2VzkTtDH+5qtIPQaBM8ojklJNrApfnS7MJSJfd9tHNkfjMeRCNRmNCp6VVmDzgHV4mmUSfX3DuwYsITQzhmecMSn+M7wlwlGsd3nBhH02keTnPFsBwdJDX3IhhLv+NzbJB7L1jH1fnOLi13lWicUL8l1jMD6PCr5uXKwGV+uXx2rpwXA7IpkaGZb8Wz/GJDsTz4WbFcqpPl9ve7LRzueHJTidkLzsBVohF/2Fke07lONurYrwyf5NnPS/X/dvedsYBkF07JlnnZkX5PWP5xoU9XV9imcVm4i+vKeT45FnIuKHCdaIeCjXIhzU6MTA2JNSHNIMHz27qfaMzvj7vLNP/dZfXyDDTFExuLDVMarxqN5hNWZFtJg9bbCbhOtP3l9dJ3Nh7+BCbNahR2aJvQ37Kus0Ojr0dsj+P/x5ka7bmt7UTTCIz5aJpMw7eK2pCi90TmzXsiy+b02YfZklPdqJuFvwnTnPTeYXzH2Q7Uy1ovZqWliTXTanrmZX1vlYO/bddRH70elYde0/Sd87fSnlyYLlPGHKrUdnECrhLtg4NB+RqJcoIdR0oidOadqwrk1d0V8vbfgvLM5wG5blGe0TkgE3eM37bCLyO2BeSNvUfl91+Wy9BPzA2/vAedEE00pmPHXAfz9u/Qcm+kHpWnNhXL5bPwPcozyubnbLlrlR8aC2XvC8L0smz4lOxQmMubl+bL08hTpFUCx5rlZ2uL5QH4Z+dPN8rth3tHIv/Xkf+wLQG5Yg6ISHLy+ZCe9X5kXYlcOvOI3JVcIE8j/wdWFxjlo35XgLi/hoZ8PbVC6/Av64ul7xxcMwn4g6U+eWF7mbyG/H8JLdpnBr6PIOrJhPUboXV3Bu4QLdwqI9GoSRMyTkgyCjvl9T3lZqJItMpPPyuSpA8y5MO0oPldR0xPD0ovU2N1Iho66XfbS3WjciRyaxplEMij2gXO/Wu7WXb0BpIwyi7U8ajs6qa276z7/Iik+VyjtgY6DYwGjrXIg6tRb2hBPluK3xil31febsJ4nkfS2Az56acFUlLfeVveEG5qHpchf9pFc92xbmmVDdJ/gbGTy649I4V1+NmaYjNl7OEC0cLtezehjewagUKz0G+RT+8/UtUoty/LlwHQEE9uLJHleTUaRXJWgRpjSkaVPPRpkQxc6pdHQQIShniQhBiT3pFoH6TLfehs5htsbJGfryuSHy7Ih7Y0CE2fkST7nll2Tk2TDEZZLPtX0BrLcqvlhyQj6vfw6kIEAdWabnFOjTwJ7XTncr9utCHobPNZb12cL6+YxKhtbpFr5kOzjc+QJRG712dkVoGcpTII935/Xp40mAfR/PVAhQxZWSD3flIoT20ukfNQt8fWFuq1oroQCFkoA6GZPzhkvHDbQVR9wU7SthRq6x+BtKyTE3CcaGxwg2T2DWAJG+J+kIfYGWDjQRNBg6nQH2FDTich0aggE0mnJgWfX/7ScM5f31MhSe8fbiPasyTamMOS7DM0yRMboF3ehU/FPOFbbTTnAW9Y4pfbYK6J3WWN0nsyyhuD/EFS9b9o0llHlDXa9HMeX4cAYDSuj81sO/7gFdQjaQzyps+IMuaapNR6oR6LzftmZ1WrFtN9A/g7+isjz6l4gfR7mlvmQU0Iom0FmQia2aR304wykF8q/F1iAF64rkworw+BuXYKjhItOb+2raPsHj5S6AfRRyk+ZpinYpiRcfDp7qXpIOlIKtxz4bQs+S+YuEPBJqmDFihvaIHJMdZe/XlvEERr12i/pblG+Xm1hkn6BPWhRlqQUytzMqslz9SET0Brfm1yNjSGUTbzG3+wUpfa6EwGnXDWEZ31RcAwe7csxzWQoRcc7awqI93t0ERWh9NkD9ti+EQr8uqUtBbR/nUDNDxNugYQWbKz1MjzATWz7VEyn/cbCJwqGg1ttwKafb5Z/9mofwn8ROLhtcgPpLTS2UnCEq0aJuMf5sFkdPGmRQrv5bkYPAIqUsWvzq+Ry+n4omOX5xlaohiNvDAbDQ/tkAVTS7wRRbThcMjZkaXm8uayhpCUN4bQcZCmkPhqmyQLfpeaXGjdm5bky6d+kqHdl+P/+zJogCbtMzNHzS/N4WWMOEHAi2bkmCtaw3JjhGYhYX6x3hgkXVcIP2xcO9Ee4lkj1FoMQBAkHAoahPmnCKJqHni5vg2zWtfC+oRR/2aj7mb988z6383Tj7poZ7UYMP1OwTGivYXIiZ1n99AnEjVRDBigRfovzJffwfRlmiR6CxHmdepHiRw82iB9oNnUfMJUjoKjT7wZRTRGdQzrc2qMjmTUxw5mlHg+tAm1EUXDfy0b+aFD+qFsHnGVYWqqMfCHaCJvhK9GpMKZVy2n0WgO6sM6huEDgbCmRqJZHGnWayH8OZrdxeYZbW1E430gyJZiwwQ+hig2cjCb+V8Ccpc3GBrt+sU++GzZZv1zUHcK6qHP0Lk9I4Ua78lNAc3HCThCtMqmZvl7hvYniTCjhR39TaQZzFMeaVbQsUnvpMm9ycZbOPdIrdxhqv41BYYp0vtArOdBSCKaaBoMjD4sc6D5iPHwhRjBJY1D3vQbmZ4+Hzr077RsEJEnCrWVbTj5PDeXftHP1xtR20yYLabVeuPvpMOGjzWB+dP/07wzZXOR4VuN2E7fLV2WmETTCBpEs9JzlzrBbXO9WZ/xfIkg9NFw3YpWudNd87fqT99VAwH7No0UvkRv4uV3Co4QjRGVNpTNA59I2DEcGyNWwMSM+LxUhsF3YlRFjPqiFFosW2qa6W+F5WN07nBcHwnzuMl06v93Pzr6vXT5MM0wryM4MwDnegAiOyMdzBhI+uqXFfLqrnJZho5XBxwd99xWo+yVuTUyEgQdDj9qW7GR7x+4RRCO/5/3Gh31sp5AZBIFHd0fUWCNeYjLR6jXKNRppc8gd1qwQS7VcbZMWZlv5PewqdE0PV7GK2blqhkkqB3/O/Wo/AUafBnqcjXcD7oT1gGCKcj3j6g/h2KSkd/Yr/BydWE2KSQlo3en4AjRHlkDExDh1J6KsMMGwkda6evoI5FUU9Kr5KKpeHPxhjO8zzDNqYVwuEWHKf5tA8rFG//O/iB8xFb5zWY6ySA8zOHty/Pl82KStmN4v9ZfoxHugMV5KLujb8jPUzMqjbJBFBKTeIjPZxJF647PQ1b6ZW/E+BjxKYhwLYc2QATewxewGoT8CZ3+yPS43m9hHvzB6PJb5ZG1uBfPNDTFr8euRmNJTrX04rEKJ9Fq1NgXg+wFdc4dnxVzotWgg781N++0zKYlagbQAd+dnyf3wN/h+BfHt7Sj6A/xHpDmAvgkN8Hx5j2DVxbKdzloSTKAMPRZ+szMlSvhRF8M/4arOTSdRo/Z8v1F+XI3TDBnH65dwLMvDD/NKvs7EWXTJ+R3nJQ+D/nnmb7etfwePlqHupt15JjbkOQi6cdzNZgnRO9BPb4BzfUt1OtCBBBWvdrS0+dDHpycvxPuwuAVhdqOPGlcfUizHv2hnYfg+h2rCuVqPje+M+5pzytamPYe0w1wCjEnWmp5Ix4ejXIKfoOdaCTGoQwQSoUdEN0p6FBDS0D4l/czXeR1/S4qHe9RQpnpNO+o69Fl00+Cf3YbNCLBQKSXWV5k3kZ6fG/Vi+VE3dNer47ft11nepYZ+Vydrpv5Rzx3ZB7RogEH3Bgn5zmJmBNtKfwAffu6aIB4F6P+R2QYzC/9RRKMeAGRpOWf9QQhuTksw+EgJxFzor3PoYAe1BEnEmoO/jhGpM80Hf6aHh7Yg14iRpujEBQ5jZgT7X/+hhA8AYhGH+pS+Hr3rS6Ux9cH5OblfpAPmhoawvb+OBSa1kuglfPNiNZJxJxo7x1MDI1GUZ+I/hAjV/pE+L/dffEohm+WKW+bQzJOI+ZE46CksRDQvgE8cUb4gtyyzOfar7nEnGh7dHqmZ739iSZs/z4wmWnBjuONTiLmROOA5BVzOf3U9Wi1J90v1vDMCh34dg8xJxqhk8ZdLFvxpPtFSQZ/clqGMdfrJhwh2pQM7zAXp4Va7ILJWTL/iHPzmSeDI0Tjmq2+c85sGsqT0xOO6TG65HJwayVuPMARohHcZKJLWWwax5OzFyUYp8egyZ7bUmL7i31uwjGiBRtD8h0GBYiA7BrKk9MXHRujHzYxCwTj4ciFsj4Oj34nHCMawWXX2ig9fN4zlqKDwjrBD+GkO4XfWZ/NKFLbEY5+31m58usNxbIxTglmwVGiEf+5s9QzoScQNX8gFZf9cFkRf1Xlgum4hu974/rXZ+boUqahKYXy0o4yXRAaL8e7dwXHicbfFvgVd/14ZOskdOKtDSyh48clUB+SI9VNcriySXdWFdeFpN7Bg1m6E44TjWhtbZWnuYkYDctdP3aNfq4JzeG34cNaW+YSDa4QzcL/7Q9Kby6z4ST1Oey30R+7GP7XF4HOS7MTBa4SjdhT1iA/MbelqYNLh9emMxJVqMn6wC9bWxDfzvzZwnWiGQjrpuDH1hTLJTzmYCJMqobs0HZWBGauoVdC4rNdp/Uk0RcKrsP1C/Jkl80mk0RDnBCtHb6akMzKqtLjmO5fXSQ3Lc2X/ojArl/i032Wv9xYIoN4HGkcjMdxoYAS/xS1sI578d6JqDvSjtwaiPgh/467sRINcUe0zmjV46WO6xFTRmdwY612cFRHOinUqoOW5cvwzSXSx9LCXHenm0QgJBSF4178jhoa93x9Ro48hZdlT1nia7FI9ACidUYYpNMDVCa5s3JXNRNIY23A9dU0y7T0KkTSAbl9RYFcvcCnBzNzp/01MI13QhM/u6VUZmVWSYEuo05s7WWHHkk0YmOh+ct4LkSr1KZ3pxRI+AR8ORZqNQ6QgdTjs4ceTDSCx4zSobYjQ6yE5rA3zOE+8ywyD6eGHk20mqYWPUeDGsaOFN0tOucIYo//6qhZAw+nih5NNCKzskkPReFQiB05ukuUZOMz5EXz6CkPp4ceTzSC55NdxcPxEPXZkeRsRaPH8ZkycivnIc89R747kBBEI3hA3y1Lfcb8KbSPHWFOVzS65KDxpEx5K9XuhG4Pp4qEIRrBU7Bf3I4AgScFcZztDAmnBONY2PgsuX4BjzZ1dwdRIiChiGaBh/U9xDPHrIFSTmHRx4oiVKToWjCaSGqwCVly1ewc+UtqhdSaB+p5ODskJNEs7Agckxe2lcp1C40feTDmUM15VGo8ijliz8+XzMiRf04pkImHgnG35r6nI6GJZoHHcO4pa5RpGdX6UzfPbAnoj0P8ZnNAD1Z+d39QUnx14q/rGatVeyLOCaJ5cB8e0Tw4Ao9oHhyBRzQPDkDk/wERsOsNAaG1eAAAAABJRU5ErkJggg==;" vertex="1" parent="1">
          <mxGeometry x="120" y="80" width="154" height="81" as="geometry" />
        </mxCell>
        <mxCell id="HTFmvV2dwYDpWLHHtwac-2" value="" style="shape=image;verticalLabelPosition=bottom;labelBackgroundColor=#ffffff;verticalAlign=top;aspect=fixed;imageAspect=0;image=data:image/png,iVBORw0KGgoAAAANSUhEUgAAAFkAAABYCAYAAACeV1sKAAAAAXNSR0IArs4c6QAAAARnQU1BAACxjwv8YQUAAAAJcEhZcwAAFxEAABcRAcom8z8AABnLSURBVHhe7V0HeBXXlc73ZRNvkt3NbhyQhKgqCFHi9qU5TuK+2HGCG4kLzaDXey8SEl2iI2RAIIFEBxkEiC6EAdNBIBBVFEuigw0YMMHUf8+58x4SYtSfhJzlyj9v3ryZuef+c+4p994Z/+DevXt4jIbFY5IbAY9JbgQ8JrkR8JjkRkATIfku7gqU7aN/BMR3+nuw8Hdpf9nx8F3Dfx3+fg93yh3zqNAkSMadu+LzrsRgvYu4BT6y75Sr51HhkZNcsVy/fgMnD51Ewcp8rEpdgXnx85ChycSE3qkY99F4jPkwGckfJ2PiJxORoctEVvxCrE5dg/wVu3CiqBQ3vr3uu5JUJMLl624sNALJrKV+TaXOS9vlVZaOwInCE8idnItUxSTE/9kLY5QBmlAtVM21UAfpoAsxQN/CKGAINd3f5v3KIL2AJtQIc7QV8S/GY7JyCtZMWYOThSfF9f2FRBDa7cfDsjYMGoHk29TM28TrbWrlHV9zgTNHTmNZygoM6zYCpnALVEEa6FoYYG1rgSPSAUeUC44ODCfsHRxVwCmOcUQRIlx0vk1cR91cBVuYBYPfGyrqOXv0rK9mqdy7yzdcTt7AoxFI5haVadPhLUWYos+AubMZyhAlTC0tsDOpfrICACbeGu2EM9xB17fSDVTB1MWAdP1UHNpe5JNE6kXyMgcWDUIyd0X6h7ZZcyWCD20+ik8/mQBDOy20wUbYItywR5PmdbTLElU/0HWj3bB1ssBJ2u6OoroiHNAE66FtY8T4vik4uv2okIvLvbuSCZPEfrg99UWDkUz/ifLVya8wzTYN2nZmsqFGONoTCaRlkimQzEHDgXuIA06/6WHtjnRCG6KFvrUBM20zcOnUJSEnh3rCVjeAdjcAyWVebcP8jbD+xg4tdVdPmJe0qqFJrTmspNmKIBNin3Ng6/wNQl5BMfdAodUV21V3BJBkSUAuVy9dofBqMpTBahjbUHdt7yHTQE5KaHDTgTPaDgM5WkWLGEwxpuH6pW+F/IE2GQEj+Y4vLivdU4zY1zzQNVPB2d4l7K5cA5sC2F7zp53MSQwphPe1/ig5UCLaweEmpTOyba0tAkKyvxTkFZDQVpiDrYiNlMhtatpbGTxRXoq9zdA/bUbh2v2+FjUVkn0mYtuCbdCT5za1NgsHY+9Inp00RHI68g1rKhDxNpkOb/s4WFo7oG9nwc6c7aJd1EJqZ/1sdL1IFnEPla0LtkPbSgdLW6tEsK8bfh/BztnUxg51OwW25WwR7eOIgyHHQU1QT5LJRKzZRQIZiGAbOZKmr7XVwwFbRwfM7ezQheuwb+1e0U5/WCrHQ3WoE8l3felxceEx2CItdOcpa/ue2N6awE4Jkj3aAzNFHhYyeyX7i0V7ObmSyK6dra4DyaI6XL1wBd6XXTCHkO1lE0EhmpzA32ew6dCF6uB9xYNrF76hdt/hERjigMdhak50rUlmgrmkqidB15zCnkg32WG2xf96JIvYviNFHE8aMEWbyhyzZaa/27LcVIaak0xRhN9MfD53IxQUVzrbu2EjLXZGuZtUNhdoWMh8KCgV3zhLcoT+xEuWJxlUS7J/Ssd/F8+VnIPpGRPMlMk1/NhD04GlHcX/z9pw8YQ01iHHVWWomSbjFl1V0uI0fTp0QWp4SIvlhGlKcMrsqyu4p6qa65Bhmi54qE02WENzweYeKNp4GBpKONzhXhFN1M/ZucW4LycB7DhtbR0wUCJjaGMgGOsIE8EMI6O1BeYoHuZ0EEGB8Rd2ymLVbfQo2nZQ8MEdXECWszJUby44h2ctJn83/uOxMPBwpYwAtQNngrFwRXngIsFjgvvC+aIDIz4YjdHvj607utP53UdhzD9GI+ntIbCF6ejGUTjWMTBmzR7thqqFAcl9xjAd0iQt+yo2pBV4K48aaTKXg+sPQ9dCJ40HywhQO0ia5YrwolfL3shJy8Hp0pM4kn8IxbuO48vddcVRFBOOFRxG8SHaLjyOga/3hznUUqH+2oNNj42SLXukF/pQEw5sOczUEsG3SQmr1uZqSRa3jMoEZSq0QXqqMDBdz0WIaaHCpISJOH/sHFzP9Ze6fIQJpgjq7j7wdnn49/t/e+Azks81QR+hh5q0eNXo5SjecxzGMBMlTfWbgWGS7WTieFpLE6zDZNVkwQsPLFQ3NFo9yVROHz4NU7SRBJXCNTkhagMR7pFW9A1WoIDS1nlxsxDzP+RMSbOt7SmtJULqBj6XYlvaNoc7oI3U4uSRk0h6NUlkb3Ky1AkR5D+iTTh1/JzgpzonWCOSl4xdSp5VTTk9V1J/+1ZGshK7cgswy5sBTYhBGtwPyPXtsEY5oe9kQPGBLzG666jAkky9uW+QBsuTVwt+6qzJwtDwBW7fxdC3hotZZVuAJj3Lk5y/ehfmkiZrWujhqkCyPdomzIqLCOMoxMaRCG27KGLw32wpTOMIovz1HRLJnY0o2V+CkV1H+Eiu/w1ksByGljaMeGs0bt+9KXiS49APeZLZ0vAMLpWSgmKYwsyiO8pVWBc8SHI+5sd+Bm2ohgiUpqn8x3nJm5tbGaGlXuSi9N0lMksHEW+Du0OcmAzVhejoPL7eg77C3t4FXRcTSvaWIukvpCTteHzbQ7/Vn2gxlEum0xhpQ+mBk4InWR59kCWZ1Z/BJTd1NVTBRIBMZXXFwyRnPUSyO9oDNY+NvOlFpmc6xacqeNp6BZmujh70C4rB4I+GIN2aBkWoSmhu+ZHAB0lOCijJfKO5LgU5wHVTcgVPcjz6USnJEsVAqnIC9NSV5SqrK+RJ1goSxFhIJ4qdm6vgeN2Oy19LaeyiiYugbKaCixKhPi37YfDfB+LGzX+K3+YNyIKiFf1GRLNdZ+dsa0BNdpK54jFnDeUM6apPhQyCsUoSk8ptMpUb/7yJ/i96KRsLpNOQITluPrTiRrrh7uiG+kklXG+6iOArQg5/WTZxGXr/ZwxiX4nDnTuU6lPhZInLHOssqJvFiMlbU2cLabYDus5EcmEpEhtAkx1kly1t7Oj/Sn/c+s5nl2tDMv0jTjpddApmClXsEfKV1RXyJOvIRMSiT1BfJPxvLK5euixkuHHzJi5cuCi2ueQkL4P5OQu+Lv3Kt4fEvXEbg7onQN1RS+m0Fc4IMjtEtrahzAX1GP60UrhoibbiDMX5XG6J7PhhPuVJ9kUWe3J3UTfWwR6A2Lg8HiLZOx/qVhYominh/mssvrksmYibN25iYq+JsHbW43h+2bKqnLFLYHrajnPFF3Dnu7vwvhaHgcoEXLl4BdmjsslWxsAWzubCiNLCEgx/c4SP5MC0w0+yjXtLSwP25klTVLfvcfb3cMxcpbnIm5YLJcWDFSupL8qTvCs3H1nuLPT5uQLx78fj22+uirqvXrqGcT3HE/H9oKcIw9jFjAOb9onfuCxLWQ73H93wvOzGaBWPJUgyc8kesxCa1kboO+pQyiHcG/4QTl6eOoPIVgepsSHzc6liMcZcS5IXD10MTXOdfAX1gJ/kfiEq7F67G7Ocs9Hzxx9i/ZwvRL1cjlI63Kd5DKzhZjg6ufGPJ3oh1SM5GR6QuX39JpRtlOj2g7+hZOcxsd/P88WSr2CKskEVrkLJvmKMenNkw5BMUAdrsTRpqahXjkdGlSTPsc+VxivqNaT5MDgc5OHNviEKrF/wOdbNWI/uT3xEabAK+33ayrH6+tkbxCLFD//jQwz6YBAufyM5whvXbsFDdnukbjSyyDwYfuvAiYNnxG+XyX4PeGMAPniiBxx/MOFC6XnE/TYW1jCbrCz1hTZEj7muLFE301Zjm8x/XKYaMqANNkjBt0wFdYXknR0wtbEi7vVYXDpzCcumLsPot8ZAFalE4ReFon4ua+kGjNGOwfWrUrj23ZUbSHjdjaR+A8V3LkuSc+D5PS8c3IxBbwyBsrMG6d7JOPXlKeSMW0Y3Si0tEpeRpb7QUVSUeX8gvw4kT9amNQzJ1GB7Bw/cUbEwh5gx6JUR2LZ8K1ZPWQlVMz107bXYv05yJuXL9cvXMaBrPBwve317eEJTCp9mJ3yGHv/eE9pfGDD+43Eo3LQfMywZ6NtWB0t7kl+k4vLy1AdMcrp2qpChbiTr0sTC6cCTTDY5SppdcZFGG9qZoQxWQd+Gb6gX1pYW6KPU2LO2QMjB5dvL15D0/lD0+7kSnt94cKygLNq4eOYihv1lKKytbLB0MlNkYSG5tVC2MEiLHgMsf3kIknUSyURd7UlON0+DOkTboELeB2s3axxvE/kmCumM4XYKj/bhCiUlA7sPgpKcsLNjLDTtjDD9yo7jBcdw8fTXGPDqYEqtyUHzKCFfh7RWXKuBtLc8OInKtGQKvpg2OT6rJHmma7ZEcoAdX41A0Ycu0gxTJxvif51A8aiZegA5sI6kmZR220Ips3vGDPvzdjI5DnKkvDyhIR6NqBqaEB3meuYJvoi6h7kkVEnyomFLKE5uJE2WgVjbTNmmta2VZOCHbVgOTij4WRMb7GGUELR10La00DEQ2VxtwWZpWeIywRdR9zCXBHmSCVw+n7oBCjHlJF/BY7Ama/FFhhTfS9zVMBnxKTJ2ry6AqoVR2Dm5Cv6/g+2+rqUe+/L2CL742UDpgdAH+axSk08UnaDMibpiRON3w6YMkbGyyeJ5RfIDZ4+dFnzxo2py832yJItlWVS+u/5P9H8pHtY2je9QmjL8wwImStUHvjQQt25UPQVVCcmc1EqFp771FG/KVda00Li9jSMufbARaaopgidi7iEe/aiUZP7ksiZ1DUUYKjFjYYuuYjyW7izPGKhDNPcfPOfBE1MrqxQJiElQPl/m3PogmpKXCCsMzVRi3NvSiaIQipd5jYTs8QEAJ1NMsorauG6K7xnAcvxVRLUklxacgJUyMn5sVpAlUykTb+dltF0smBM/B6sn5mLNxDysTFmBkW8NhD2ESaabJHtu3cH20EZy9X8qHtmJ8+F8Nh6WCM4k/aGe/Hn1BQ8L2Nrboetgxom9Pntcjr+KqJRksc6LTr576x6GvTUUZsrAHB14mb98zGwLc8H9Ow8unfkG2SMXYZZjNpYk5eBUyTkMf3cMLKH8wLoa2mCdiC3t7Z0wtjaJxYE8IqcL1Yvvrk5u8WkJox4QboOGtIXP0bekFJl6Cy9h5fN5nznMQlmgFrOcUjIw0zEDavrOQ6MWkpffFsDHMni2nTNBNn2cCmso/te3lNb1mdtRGk7ftVSXPpRNY9Wmh/MGHuNO7DYcd25L019yPPohSzKjvDYvTskRXcNdySNjvM8SYUf87xJQWlgKQ4QFvX/SD+/+oDu2Zm3Gyskr0efnvTA/fj52L9qFVcl50IdrMV0zHSPfS4LilwbMUM1GykcpUD+pQ7piCkZ1GwdrFwc+n/Y58pfkk+1Lg/a/9RjZfTQWDlqI7VnbMOovY6FsoUXB+gJMT5yNY5SCq+m6GkpQMvqkYrpzJh23k+pbRjfMCvczcZhhz8TCwdnYlb0Ln/ZMIVNoQNwf47AhfQN2ZG/HNFMmzDyGXUXYyo6Pb+aKlJWCn4rcVUSlJPvB5VzRWRipa9gjrZWQ7IY50ob+v+mPM0WnMEkxAcO7JWJSvwm48OV5JHUbjez+C7B3eyHGvj0eWxdsxZrMlZjRPxPbZm5Bz5/2w+ljp5C/eCf6/LQv9m04gqT3E7Fl6WZkDf4Mg7sm4ND6gxhB++bGZ+LCycuYoEiF5xknkj9IRsGK3Xj3h+9hb14hUolcxb8pBGHHjx1H0geJ2LNkL3LTcmF7yoXrl29hyaglSFGl4Oy+80h4wY2dy3dgUcpiDHt7GPIX7MagFwaKnlSxnX6w6TR3sOCsb5lWdQ/q1IhkLqnqKaKLsgOrWKmf5Ljn4nCh+DwKcvdgW/YObMnZilTNRCiaK1G8sxRDug1Fz198KK5xrPAEkt4ZgsKcQgx7MxGbV27CF1kbkPjucGzPzseglxLwzflrWJWWh6XJi3Go4CDyxq/GfDJDudPW4JOfxKDvk32pp2zH0d1FyLBm4PC+IyhcXoBeP+yJTfO3IdWUgV4/+gSxv6eblH8QA14fRInDQWhb69Dr3/tiRfoqLEyci1neOTi++zjyJuVhyN8TYQqrOgHjLG+y1r/gkOIw+k+OOz+qJZnNBpeDm4qgbaWH0z9SVg7cfWzhTnifjxVT8I6nqTsFaUgYDUzBBhjCjTi+80skvj0EMT/rB3MnC07uPwtnZzvWTs3D9pwdSDWkIWfUMhSQNs7wZCLhDwNx/vh5jOk9Bp9+MAETNOOQ9NJQLE5YhjWTVqF3s95wUs85ffAssodmY+mApVgwaD7OlpyH7VcubKRUd7piGnr8uB+8f4rF4a0HEf8akby6EIYWGvR6og9yM9dg5djFMJOfGfLXEUT4Qpw5dhap/SaRbTYKZ+33QWJVJ/uE9l66SRoc3nJI8OI3q1WhRiT7Y+bkHsnkOOTm/MiEtHPD9YKLNPkr6oIDxXQPL6tykZNQtdRgUeISFO0oQnL3iUTqdmxbuAW9/6snplnSxLWdz8ZiuiFDbMf+OQGa1mrsXVuIRROWIvGdUeKhxeT3kjF35Dx8MWMjaWtvrBq7EnvyCtDjZ72pl6nwyY/6YFfOHqyclINcspfFhSVI/scE7KGetXT4Ulg7GXHlwiVkj16KqbrpOLn3BPo/78DuBflYOn4Rhrw6Akf2lGKSgUhu8SDJDBM5VH1zAz7tkyzkJIZkOauIGpHML9zgSx7efATalhQZVHidjRgho2gh9lceZMVmkYPxCG/O9pvfzMILTfhRhbneediybBMWjV0EQ2cDLLTP83x/ZA1cAEtbOwa+kICs+HkwRpmF9ruf9ZK5WIlNSzch0zYTqhAVkj8ah/SeU6FvpsF8+1wMf2c4TPzoQmcLbBSTj3pjJGaS6ViXvhZr56wh5JGGfkZy6xD/Jw+Kth5G9qiFWL9wA0a8PRy6J01EdBz1qHXYung7Zmlngx+LkB61KGsjazKvs1C1U+OY7xU7cnzJoVqS78O3UmeGYTYUIQpKAqQFgPeJJoF4USAvUuEYUtpPZoQ1gbqZK8JDGZIB+iAj1NRdbWTDXRTLWkhwnZispUZQhKKnbWu0FTZKKhxh9FtzCrdCKIxjzepESUeYXpDq6GSHoZWBUlszXGIsmZ+5oxtKqW6vn/bGjhXbMN86C71/pIQmVA1zWyOGvDKY4toTULdRQP8khYxtjFSPg5wcz6QooaMMTsthHSnHfYKF/LzI0SlWKE21zRA8SANBNSO65iQL03wPX5+4AHcXLzkH9r5Vx5N1hTQAU/67f5v3+3+rvG6OpSd+PAmJXYcT6ZRE0c2xtbci7plYTFVn0M1wwy18S/klt5Vcjx09wRJGN/NpL746eUFQHNDn+B6EZJ03zdqMmKAY6lJNc+CIkxZTK7Mg29FR0kQmyhZlFSt+mFDRw2TOfQh0np3XcAQpsW3eVtH+O3dvVxtRlEetSOYLSwv87omQLoacjTuKl7vy3a6h0I0CvyxkQu5rK++TwOm4/PDAgxAzQnSs4pcKpOskB83uqboHcSqilprMjpCJvourX1+F5+U4CnXM8LaPlRXy+w42WybKDRJejce1i9ckjmU4qQ51IJkhOcHiwmJonzLC0ooFargBmUcBNjnmNhZYO5spFpdW09ckJpZD7UkW/YXuqG/lZ+G6fdCSUzC3tUkevkmZjbqBox49xfnaCDX2rfctG6smda4KtSa5PATbVLYv2Ql1W62YKbCzo5ER/HsD0mAjEawJi8GOpb73EMm0vTaoH8ni4R3JdGzL2QxtuE6sb/u+viZHRCWUIKlJg/P9BPOfTNtrg3qRfB8+jd6/bj/ZMCulpFppLYSw002YcBHaSeBn//jZGNtTVhxYLy145JbJtreWCAzJBIlmoJScYWxXF3S/oGyKGvIoVvXUGCL0lOJg5S+VGNA1gZzcKdEOuTbWFYEjmeGj+ttL15BumAZFqEIsvq6YwTUFcOzsJA02tzNR2q5GuiVdrBrlIte++iBgJEtgAf06DWyevwnO3zqgDdLAGc5aw5kWN/LRmREekzB1csFO8vB7leN+7RUjgv4i3676IcAkM/jlBPz2b6lcOn0RMxzToWurh5JtXqSX7DW/O/lRRCE8HhwHXXMdlJF6ZLhn49KZsier5NtTfzQAyQweoWKipciDS9H2w0hWjBaTpNrmRDZpEpsRJtuf4vqfKqo7ynrHfRMlnBr1oAi7mFDVU6iZqhiP4zuk9c2sDLeFvHLtCAwahGQp9+bgXQrgpbepSaVoxzGkmdNh6WxDv2A1dK2ssEcyGdyV2dMz+URMnQiXzJB0HWnanme5Nc20MHexYqp5Ko7ml71u/S6/W4msmyR33ZON6tBAmlwR1CICf/jLuZKzWDlpBcb+bQwskTYoQjRQhxooleW1FE5YieiaDOL4wdP9ViLV3JZCyGCTeMWYLtqEke+MxvLUlThfzEOUUiGJ7sv1sKyBRyORLIFzl3v3bolG+stN0qaSQ6fEzESGMhXxL8XB1IFMSqge6uYa6uL8f23Qi/UQhpbG++DvvMqdTYCajuHjrR1sSHhxgFg+sC5tI04cOHU/4uHCay7l5GpoNCrJPI0lDTAx2WwHy2y2v9y8fhOnj5zB7rwC5KWtxoIBWZhumInJfScjpUcKxn04Dsk9xmNSTCoyDTOwcOAirEnPE3N9Z46epvO/812prIiIRxo+vC9LY6JRSa4ONS9VH8u/8uXk6ngUaFIkM1jb/RAjff7f/OQxi/7CX+gYXhd87w73DN+xTQxNjmTJnEiQPL5kRx/cXx5sddna1u4lpY2JJkfyvyIek9wIeExyI+AxyQ2Oe/g/6XY+pqlFMrgAAAAASUVORK5CYII=;" vertex="1" parent="1">
          <mxGeometry x="152.5" y="310" width="89" height="88" as="geometry" />
        </mxCell>
      </root>
    </mxGraphModel>
  </diagram>
</mxfile>
